<?xml version="1.0" encoding="UTF-8" standalone="no"?>
<!-- Created with Inkscape (http://www.inkscape.org/) -->

<svg
   xmlns:dc="http://purl.org/dc/elements/1.1/"
   xmlns:cc="http://creativecommons.org/ns#"
   xmlns:rdf="http://www.w3.org/1999/02/22-rdf-syntax-ns#"
   xmlns:svg="http://www.w3.org/2000/svg"
   xmlns="http://www.w3.org/2000/svg"
   xmlns:sodipodi="http://sodipodi.sourceforge.net/DTD/sodipodi-0.dtd"
   xmlns:inkscape="http://www.inkscape.org/namespaces/inkscape"
   id="svg3390"
   version="1.1"
   inkscape:version="0.92.3 (2405546, 2018-03-11)"
   width="736"
   height="594"
   viewBox="0 0 736 594"
   sodipodi:docname="tantivy.svg">
  <metadata
     id="metadata3396">
    <rdf:RDF>
      <cc:Work
         rdf:about="">
        <dc:format>image/svg+xml</dc:format>
        <dc:type
           rdf:resource="http://purl.org/dc/dcmitype/StillImage" />
        <dc:title />
      </cc:Work>
    </rdf:RDF>
  </metadata>
  <defs
     id="defs3394">
    <clipPath
       clipPathUnits="userSpaceOnUse"
       id="clipPath4602">
      <rect
         inkscape:export-ydpi="127.60435"
         inkscape:export-xdpi="127.60435"
         ry="0"
         y="62.494999"
         x="-406.03235"
         height="211.73714"
         width="554.00085"
         id="rect4604"
         style="fill:#a3b7d3;fill-opacity:0.38194448;stroke:none;stroke-width:0.5;stroke-miterlimit:4;stroke-dasharray:none;stroke-opacity:1" />
    </clipPath>
    <clipPath
       clipPathUnits="userSpaceOnUse"
       id="clipPath4606">
      <rect
         inkscape:export-ydpi="127.60435"
         inkscape:export-xdpi="127.60435"
         ry="0"
         y="62.494999"
         x="-406.03235"
         height="211.73714"
         width="554.00085"
         id="rect4608"
         style="fill:#a3b7d3;fill-opacity:0.38194448;stroke:none;stroke-width:0.5;stroke-miterlimit:4;stroke-dasharray:none;stroke-opacity:1" />
    </clipPath>
    <clipPath
       clipPathUnits="userSpaceOnUse"
       id="clipPath4618">
      <rect
         inkscape:export-ydpi="127.60435"
         inkscape:export-xdpi="127.60435"
         ry="0"
         y="62.494999"
         x="-406.03235"
         height="211.73714"
         width="554.00085"
         id="rect4620"
         style="fill:#a3b7d3;fill-opacity:0.38194448;stroke:none;stroke-width:0.5;stroke-miterlimit:4;stroke-dasharray:none;stroke-opacity:1" />
    </clipPath>
    <clipPath
       clipPathUnits="userSpaceOnUse"
       id="clipPath4622">
      <rect
         inkscape:export-ydpi="127.60435"
         inkscape:export-xdpi="127.60435"
         ry="0"
         y="98.761581"
         x="-240.58315"
         height="170.20018"
         width="445.32123"
         id="rect4624"
         style="fill:#a3b7d3;fill-opacity:0.38194448;stroke:none;stroke-width:0.5;stroke-miterlimit:4;stroke-dasharray:none;stroke-opacity:1" />
    </clipPath>
  </defs>
  <sodipodi:namedview
     pagecolor="#a3b7d3"
     bordercolor="#666666"
     borderopacity="1"
     objecttolerance="10"
     gridtolerance="10"
     guidetolerance="10"
     inkscape:pageopacity="1"
     inkscape:pageshadow="2"
     inkscape:window-width="1853"
     inkscape:window-height="1016"
     id="namedview3392"
     showgrid="false"
     showguides="false"
     inkscape:zoom="1.1790698"
     inkscape:cx="-245.44568"
     inkscape:cy="256.33676"
     inkscape:window-x="67"
     inkscape:window-y="27"
     inkscape:window-maximized="1"
     inkscape:current-layer="svg3390" />
  <rect
     style="fill:#a3b7d3;fill-opacity:1;stroke:none;stroke-width:0.5;stroke-miterlimit:4;stroke-dasharray:none;stroke-opacity:1"
     id="rect4197"
     width="554.00085"
     height="211.73714"
     x="-406.03235"
     y="62.494999"
     ry="0"
     inkscape:export-xdpi="127.60435"
     inkscape:export-ydpi="127.60435"
     clip-path="url(#clipPath4618)"
     transform="matrix(1.180498,0,0,1.95392,-50.927864,-100.29965)"
     mask="none" />
  <path
     mask="none"
     clip-path="none"
     style="opacity:1;fill:#8396b5;fill-opacity:0;fill-rule:evenodd;stroke:none;stroke-width:1px;stroke-linecap:butt;stroke-linejoin:miter;stroke-opacity:1"
     d="m 257.18038,627.90199 -477.4838,-523.44757 -117.25584,46.69157 -19.7985,11.61169 -9.64542,5.80584 -8.12247,-1.45146 -2.53827,1.93528 76.92903,106.54852 c 73.29378,-1.00555 176.82427,349.36734 370.803935,355.90443"
     id="path5064"
     inkscape:connector-curvature="0"
     sodipodi:nodetypes="ccccccccc" />
  <path
     mask="none"
     clip-path="none"
     inkscape:connector-curvature="0"
     id="path5066"
     d="m -263.13734,88.629966 18.81418,20.904654 -24.82427,15.9398 -7.31663,-1.04523 -5.48747,-15.9398 16.46241,-19.075499 z"
     style="fill:#8396b5;fill-rule:evenodd;stroke:none;stroke-width:1px;stroke-linecap:butt;stroke-linejoin:miter;stroke-opacity:1;fill-opacity:0;opacity:1" />
  <g
     inkscape:groupmode="layer"
     id="layer1"
     inkscape:label="Layer 1" />
  <text
     xml:space="preserve"
     style="font-style:normal;font-weight:normal;line-height:0%;font-family:sans-serif;letter-spacing:0px;word-spacing:0px;fill:#000000;fill-opacity:1;stroke:none;stroke-width:1px;stroke-linecap:butt;stroke-linejoin:miter;stroke-opacity:1"
     x="-110.38207"
     y="166.20924"
     id="text4460"><tspan
       sodipodi:role="line"
       id="tspan4462"
       x="-110.38207"
       y="166.20924"
       style="font-size:40px;line-height:1.25"> </tspan></text>
  <path
     style="fill:#464646;fill-opacity:1;fill-rule:evenodd;stroke:none;stroke-width:0;stroke-linecap:butt;stroke-linejoin:miter;stroke-miterlimit:4;stroke-dasharray:none;stroke-opacity:1"
     d="m -273.0896,95.543319 c 4.02512,-0.6207 5.06654,1.0436 5.63894,0.30738 0.57239,-0.73623 2.71132,-4.36963 2.71938,-6.2756 0.008,-1.85742 1.83049,-0.31524 -0.65983,-2.56855 -2.4903,-2.25332 -3.88819,-4.47729 -6.11216,-3.07941 -2.22397,1.39789 -3.02508,4.08943 -3.02508,4.08943 0,0 1.79573,0.97922 1.38269,2.79014 -0.41305,1.81094 -2.3609,6.49588 -2.3609,6.49588"
     id="path4209"
     inkscape:connector-curvature="0"
     sodipodi:nodetypes="czssscsc"
     mask="none"
     clip-path="none" />
  <path
     sodipodi:nodetypes="ccssccsccssccc"
     inkscape:connector-curvature="0"
     id="path4467"
     d="m -284.3046,105.38429 c -0.10161,-0.0407 -0.15841,-0.0531 -0.15841,-0.0531 -1.83481,3.02747 -5.2102,1.24694 -5.74534,4.94608 -0.47623,3.29205 2.97168,7.23446 4.11205,10.65081 1.14037,3.41638 -0.14366,7.59806 0.90079,9.17332 0.31652,0.66048 0.68394,1.54145 1.08344,2.41651 -3.68324,2.46779 -3.16762,3.47692 -2.09975,5.94416 1.79549,4.1484 8.79246,1.58583 8.79246,1.58583 l -5.71121,-5.47437 c 2.1093,-1.04475 5.64435,0.79106 5.82533,-2.24367 0.32599,-5.46623 -0.50289,-9.20495 -1.55214,-13.63822 -1.04923,-4.43327 -0.32544,-1.08058 -0.83216,-4.63866 -0.99321,-6.82761 -3.90303,-8.38582 -4.61511,-8.66856 z"
     style="fill:#464646;fill-opacity:1;fill-rule:evenodd;stroke:#ffffff;stroke-width:0.46147341;stroke-linecap:butt;stroke-linejoin:miter;stroke-miterlimit:4;stroke-dasharray:none;stroke-opacity:1"
     mask="none"
     clip-path="none" />
  <path
     style="fill:#464646;fill-opacity:1;fill-rule:evenodd;stroke:none;stroke-width:0;stroke-linecap:butt;stroke-linejoin:miter;stroke-miterlimit:4;stroke-dasharray:none;stroke-opacity:1"
     d="m -374.25357,166.3957 c -2.23375,1.76203 -3.4118,3.0249 -0.85302,2.72922 2.55877,-0.29567 0.39348,-1.08264 2.56855,-0.65982 2.17507,0.42283 6.87958,1.6424 6.87958,1.6424 0,0 16.64066,-9.02758 18.1168,-9.71674 1.47613,-0.68916 3.39464,-4.28168 1.45656,0.0391 -1.93807,4.3208 -7.86769,21.4971 -7.86769,21.4971 1.24984,0.37417 1.55901,2.37439 1.80281,2.95905 -0.16531,0.58131 -0.81928,0.41318 0.2643,1.2167 1.8326,1.35894 2.51751,0.1809 2.10488,-0.79431 -0.41262,-0.97521 -3.23609,-2.07088 -0.76305,-6.93191 1.67187,-3.28624 4.69104,-10.18212 5.82748,-11.79142 9.81086,-4.77207 12.85898,-13.14979 28.34712,-16.36067 7.34153,-1.98924 10.41574,-5.11487 10.41574,-5.11487 0,0 -2.8838,-1.17067 0,0 2.88379,1.17067 14.65024,5.3748 20.24794,6.51577 6.20077,1.26391 22.92846,0.47436 22.92846,0.47436 0,0 0.0489,-1.82071 0.31523,1.83049 0.26635,3.6512 1.21154,11.44388 0.80745,13.75573 -0.15083,0.86289 -0.59218,1.01671 -0.64108,2.83742 -0.0489,1.8207 -0.18129,1.6197 1.52074,7.24197 0.59169,1.95452 0.32911,8.49275 0.32911,8.49275 l 1.07286,0.75762 c 1.88194,1.32895 2.22515,1.12349 2.46264,2.13871 2.0096,1.50879 2.6708,1.03866 4.46753,-0.0907 0,0 -0.33254,-0.72067 -1.44156,-1.74231 -2.30473,-2.12314 -3.28706,0.27612 -4.21322,-5.94363 -0.92616,-6.21976 -0.71099,-14.23088 -0.71099,-14.23088 0,0 -0.8261,3.62186 0.78695,-2.16528 1.61307,-5.78716 3.56091,-10.4721 3.56091,-10.4721 0,0 -3.96643,-1.56415 0.01,-0.36414 3.97623,1.20001 7.61764,1.29781 11.95801,2.5076 4.34036,1.20979 11.18081,4.30875 11.18081,4.30875 0,0 -2.86423,-1.89895 1.39789,2.22397 4.26212,4.12293 12.48126,13.17023 12.44214,14.62679 -0.0391,1.45658 0,0 0.58121,2.48561 l 3.71966,-2.81533 c -2.38793,-3.40735 -11.42887,-13.79101 -15.52344,-19.00157 -6.80133,-4.55553 -16.86038,-9.92736 -16.86038,-9.92736 0,0 -2.23376,1.76202 0.01,-0.36415 2.24353,-2.12616 2.9327,-0.65004 3.0305,-4.29145 0.0978,-3.64143 2.4098,-8.31659 2.4098,-8.31659 2.67619,-2.18956 5.81202,-6.53125 8.3876,-8.45577 2.57558,-1.92452 6.25031,-2.56482 7.37447,0.89455 1.31288,4.04014 5.07226,5.20557 7.17887,8.17738 2.1066,2.97182 0.66959,2.20441 1.7229,3.69032 1.39368,1.84692 4.27723,1.43358 5.66006,0.78336 1.38284,-0.65023 2.40098,-1.73073 2.87408,-3.06584 0.47309,-1.33511 0.18062,-2.4149 -0.84065,-4.33675 -1.75018,-6.69553 -4.57895,-14.63233 -6.5372,-19.9509 -5.11675,-7.43401 -9.22371,-5.82442 -13.05037,-5.45252 -7.31331,0.17215 -1.79975,-1.14193 -11.30795,0.42509 -3.3467,0.49716 -6.5775,1.63941 -9.31118,1.41693 -0.41746,1.99963 -1.91629,3.19037 -5.0664,4.75619 -4.25309,2.11409 4.06023,1.46132 -5.05309,1.58096 -9.11333,0.11963 -5.53637,-0.77216 -10.33868,1.64969 -4.8023,2.42184 -7.58337,2.18424 -9.48547,3.07331 -1.9021,0.88907 1.0567,0.33868 -2.22397,1.39789 -3.28065,1.05922 1.37655,0.35294 -6.30955,1.60412 -7.6861,1.25117 -9.19914,1.0399 -14.99607,-0.20901 -5.03053,-1.72227 -5.51648,-2.4336 -13.01352,-1.63651 -14.24577,2.30216 -10.62262,1.17055 -16.05158,0.6621 -10.9047,-1.0217 -8.34593,-1.31738 -14.90048,-1.49342 -8.77349,1.35376 -5.00987,-0.93113 -14.39989,-1.84438 -0.0444,1.95261 -0.10904,2.22371 0.44513,5.84243 1.24548,8.13296 3.41519,7.38737 4.95407,6.67648 1.99059,-0.91957 9.72213,-2.73329 9.72213,-2.73329 4.00095,2.04671 9.41249,-3.10426 15.96225,-3.23118 6.015,-0.33325 -1.75674,3.62748 -4.00196,6.57583 -2.24521,2.94836 -3.73783,9.09019 -3.88889,14.09418 -2.80119,3.10816 -8.6593,7.63685 -11.40183,8.59692 -2.08565,0.7301 -2.59619,3.06773 -4.77642,4.68502 -6.84579,4.14655 -11.36485,8.20698 -12.08334,7.82327 -0.71851,-0.3837 -9.39186,-1.18236 -9.39186,-1.18236 z"
     id="use4357"
     inkscape:connector-curvature="0"
     sodipodi:nodetypes="csscssccszscccsscsssscsccsscscsscssccccssczssczzcccccssszzscccccsscczcscccc"
     mask="none"
     clip-path="none" />
  <path
     style="fill:#ffffff;fill-opacity:1;fill-rule:evenodd;stroke:#ffffff;stroke-width:0.46147341;stroke-linecap:butt;stroke-linejoin:miter;stroke-miterlimit:4;stroke-dasharray:none;stroke-opacity:1"
     d="m -286.2155,105.8143 c -0.10935,-0.005 -0.16706,0.002 -0.16706,0.002 -0.73601,3.46272 -4.50939,2.89249 -3.79706,6.56163 0.63395,3.26535 5.18743,5.8531 7.3888,8.70369 2.20139,2.85061 2.3654,7.22192 3.87017,8.36559 0.51628,0.51948 1.15322,1.23041 1.8185,1.9252 -2.66566,3.54268 -1.8466,4.32584 -0.0261,6.30407 3.06095,3.3262 8.82447,-1.39675 8.82447,-1.39675 l -7.19492,-3.28933 c 1.64785,-1.68085 5.59019,-1.11097 4.76214,-4.03615 -1.49149,-5.26891 -3.50485,-8.52643 -5.95492,-12.36726 -2.45005,-3.84084 -0.663,-0.91324 -2.31269,-4.10623 -3.1853,-6.12018 -6.44587,-6.63373 -7.21133,-6.66632 z"
     id="path4205"
     inkscape:connector-curvature="0"
     sodipodi:nodetypes="ccssccsccssccc"
     mask="none"
     clip-path="none" />
  <path
     style="fill:#464646;fill-opacity:1;fill-rule:evenodd;stroke:none;stroke-width:0;stroke-linecap:butt;stroke-linejoin:miter;stroke-miterlimit:4;stroke-dasharray:none;stroke-opacity:1"
     d="m -273.30683,91.820369 c -8.18717,6.339391 -15.1033,8.733931 -16.87857,15.580251 -1.3501,4.75523 4.10162,4.51509 8.48275,4.74771 l 3.18504,1.65707 c 0,0 0.27362,-0.98216 1.40516,-2.40938 1.13155,-1.42724 0.37392,-0.35437 2.6468,-3.57296 2.27287,-3.2186 5.15739,-5.90291 5.19278,-9.975451 0.0443,-5.10263 -4.03416,-6.02724 -4.03416,-6.02724 z"
     id="path4207"
     inkscape:connector-curvature="0"
     sodipodi:nodetypes="ccccssscc"
     mask="none"
     clip-path="none" />
  <path
     style="fill:#464646;fill-opacity:1;fill-rule:evenodd;stroke:none;stroke-width:0;stroke-linecap:butt;stroke-linejoin:miter;stroke-miterlimit:4;stroke-dasharray:none;stroke-opacity:1"
     d="m -273.43548,101.82228 c 6.37061,7.51446 15.45593,14.71533 15.45593,14.71533 l 8.08191,1.37654 -1.03453,-4.66569 c 0,0 -5.01198,-0.5211 -6.90215,-2.11785 -1.89019,-1.59672 -7.93669,-6.78351 -11.2996,-11.12526 -3.36291,-4.341731 -6.11912,-2.483291 -6.11912,-2.483291 z"
     id="path4215"
     inkscape:connector-curvature="0"
     mask="none"
     clip-path="none" />
  <path
     style="fill:#464646;fill-opacity:1;fill-rule:evenodd;stroke:none;stroke-width:0;stroke-linecap:butt;stroke-linejoin:miter;stroke-miterlimit:4;stroke-dasharray:none;stroke-opacity:1"
     d="m -266.23804,89.018809 c 2.53921,0.4326 3.66097,-0.63049 3.66097,-0.63049 l -3.25771,-0.81631"
     id="path4217"
     inkscape:connector-curvature="0"
     mask="none"
     clip-path="none" />
  <path
     sodipodi:nodetypes="cszcccc"
     style="fill:#414141;fill-opacity:1;fill-rule:evenodd;stroke:none;stroke-width:0;stroke-linecap:butt;stroke-linejoin:miter;stroke-miterlimit:4;stroke-dasharray:none;stroke-opacity:1"
     d="m -222.88654,108.07259 c 2.95272,-3.10487 3.98338,-3.19155 5.7855,-3.85705 3.23331,-1.194 6.18412,-1.19112 4.48813,0.8978 -1.69597,2.08891 -2.44635,4.54224 -2.44635,4.54224 l -0.40185,3.45142 -4.33123,1.78989 -2.97792,-5.29504"
     id="path4331"
     inkscape:connector-curvature="0"
     mask="none"
     clip-path="none" />
  <path
     mask="none"
     clip-path="none"
     sodipodi:nodetypes="cccccccccccccccccccccccccccccccccccccc"
     inkscape:connector-curvature="0"
     id="path5062"
     d="m -384.49539,236.11398 251.51275,391.42313 240.87555,3.5983 -271.72451,-426.23274 -10.17685,-0.72691 -5.81534,0 5.81534,8.72301 -2.40377,8.58062 -10.76918,-16.81144 c 0,0 -15.65583,0.46451 -31.89596,0.23472 l 1.45384,8.72302 -7.26918,20.3537 -15.26528,-28.3498 -7.99609,0 -12.35761,0.72692 -2.18075,0 5.08842,9.44993 0,7.26918 -10.17685,-17.44603 -22.53445,-1.45383 5.08842,13.81144 -5.08842,2.18075 -10.17685,-13.81144 -13.08452,0 -9.44994,3.63459 -2.18075,-4.36151 -4.36151,0 3.63459,8.72302 0,15.99219 -15.99219,-24.71521 -9.44993,-0.72692 -12.35761,3.63459 -2.90767,2.90768 -3.63459,-5.81535 -13.08452,-0.72692 -7.9961,0.72692 5.13459,10.63069 z"
     style="opacity:1;fill:#8396b5;fill-opacity:1;fill-rule:evenodd;stroke:none;stroke-width:1px;stroke-linecap:butt;stroke-linejoin:miter;stroke-opacity:1" />
  <g
     id="g4485"
     transform="matrix(1.5201848,0,0,1.5201848,-59.238431,-126.0959)"
     style="fill:#ffffff;fill-opacity:1;stroke:none;stroke-opacity:1"
     inkscape:export-xdpi="127.60435"
     inkscape:export-ydpi="127.60435"
     clip-path="none"
     mask="none">
    <text
       id="text4361"
       y="240.40523"
       x="-210.35233"
       style="font-style:normal;font-variant:normal;font-weight:normal;font-stretch:normal;line-height:0%;font-family:'Plantagenet Cherokee';-inkscape-font-specification:'Plantagenet Cherokee, Normal';text-align:start;letter-spacing:-1.32000005px;word-spacing:0px;writing-mode:lr-tb;text-anchor:start;fill:#ffffff;fill-opacity:1;stroke:none;stroke-width:1px;stroke-linecap:butt;stroke-linejoin:miter;stroke-opacity:1"
       xml:space="preserve"><tspan
         dx="-10.02 0 -0.12 0.12 1 -1"
         y="240.40523"
         x="-210.35233"
         id="tspan4363"
         sodipodi:role="line"
         style="font-size:52.26499939px;line-height:1.25">ta<tspan
   id="tspan4456"
   style="letter-spacing:-2px;fill:#ffffff;fill-opacity:1;stroke:none;stroke-opacity:1">n</tspan><tspan
   dx="-1"
   id="tspan4184"
   style="letter-spacing:-1.39999998px;word-spacing:-1px;fill:#ffffff;fill-opacity:1;stroke:none;stroke-opacity:1">t</tspan><tspan
   id="tspan4458"
   style="letter-spacing:-2px;fill:#ffffff;fill-opacity:1;stroke:none;stroke-opacity:1">i</tspan><tspan
   id="tspan4182"
   style="letter-spacing:0px;fill:#ffffff;fill-opacity:1;stroke:none;stroke-opacity:1">vy</tspan></tspan></text>
  </g>
</svg>
